<svg width="35" height="35" viewBox="0 0 35 35" fill="none" xmlns="http://www.w3.org/2000/svg">
<path d="M13.125 21.875L21.875 13.125" stroke="white" stroke-width="2.5" stroke-linecap="round" stroke-linejoin="round"/>
<path d="M13.8542 14.5833C14.2569 14.5833 14.5833 14.2569 14.5833 13.8542C14.5833 13.4515 14.2569 13.125 13.8542 13.125C13.4515 13.125 13.125 13.4515 13.125 13.8542C13.125 14.2569 13.4515 14.5833 13.8542 14.5833Z" fill="white" stroke="white" stroke-width="2.5" stroke-linecap="round" stroke-linejoin="round"/>
<path d="M21.1458 21.875C21.5485 21.875 21.875 21.5486 21.875 21.1459C21.875 20.7431 21.5485 20.4167 21.1458 20.4167C20.7431 20.4167 20.4166 20.7431 20.4166 21.1459C20.4166 21.5486 20.7431 21.875 21.1458 21.875Z" fill="white" stroke="white" stroke-width="2.5" stroke-linecap="round" stroke-linejoin="round"/>
<path d="M7.29161 10.5C7.29161 9.6491 7.62963 8.83305 8.23131 8.23137C8.83299 7.62969 9.64904 7.29167 10.4999 7.29167H11.9583C12.8054 7.29118 13.618 6.95567 14.2187 6.35833L15.2395 5.3375C15.5377 5.03767 15.8922 4.79973 16.2826 4.63737C16.673 4.475 17.0917 4.39142 17.5145 4.39142C17.9374 4.39142 18.356 4.475 18.7465 4.63737C19.1369 4.79973 19.4914 5.03767 19.7895 5.3375L20.8104 6.35833C21.4111 6.95567 22.2236 7.29118 23.0708 7.29167H24.5291C25.38 7.29167 26.1961 7.62969 26.7977 8.23137C27.3994 8.83305 27.7374 9.6491 27.7374 10.5V11.9583C27.7379 12.8055 28.0734 13.618 28.6708 14.2188L29.6916 15.2396C29.9914 15.5377 30.2294 15.8922 30.3917 16.2826C30.5541 16.6731 30.6377 17.0917 30.6377 17.5146C30.6377 17.9374 30.5541 18.3561 30.3917 18.7465C30.2294 19.1369 29.9914 19.4914 29.6916 19.7896L28.6708 20.8104C28.0734 21.4111 27.7379 22.2237 27.7374 23.0708V24.5292C27.7374 25.3801 27.3994 26.1961 26.7977 26.7978C26.1961 27.3995 25.38 27.7375 24.5291 27.7375H23.0708C22.2236 27.738 21.4111 28.0735 20.8104 28.6708L19.7895 29.6917C19.4914 29.9915 19.1369 30.2294 18.7465 30.3918C18.356 30.5542 17.9374 30.6378 17.5145 30.6378C17.0917 30.6378 16.673 30.5542 16.2826 30.3918C15.8922 30.2294 15.5377 29.9915 15.2395 29.6917L14.2187 28.6708C13.618 28.0735 12.8054 27.738 11.9583 27.7375H10.4999C9.64904 27.7375 8.83299 27.3995 8.23131 26.7978C7.62963 26.1961 7.29161 25.3801 7.29161 24.5292V23.0708C7.29112 22.2237 6.95561 21.4111 6.35827 20.8104L5.33744 19.7896C5.03761 19.4914 4.79967 19.1369 4.6373 18.7465C4.47494 18.3561 4.39136 17.9374 4.39136 17.5146C4.39136 17.0917 4.47494 16.6731 4.6373 16.2826C4.79967 15.8922 5.03761 15.5377 5.33744 15.2396L6.35827 14.2188C6.95561 13.618 7.29112 12.8055 7.29161 11.9583V10.5" stroke="white" stroke-width="2.5" stroke-linecap="round" stroke-linejoin="round"/>
</svg>
