<svg width="35" height="35" viewBox="0 0 35 35" fill="none" xmlns="http://www.w3.org/2000/svg">
<path d="M17.2416 25.3414C17.4005 25.2455 17.5994 25.2455 17.7583 25.3414L25.498 30.0127C25.8766 30.2413 26.3437 29.9018 26.2433 29.471L24.1894 20.6668C24.1472 20.4861 24.2086 20.2969 24.3489 20.1753L31.1893 14.2495C31.5234 13.9601 31.3452 13.4114 30.9049 13.3734L21.8976 12.5967C21.7132 12.5808 21.5527 12.4643 21.4803 12.2939L17.9602 4.00098C17.7878 3.5948 17.2121 3.5948 17.0397 4.00098L13.5196 12.2939C13.4473 12.4643 13.2867 12.5808 13.1023 12.5967L4.09354 13.3735C3.65343 13.4115 3.47515 13.9598 3.80877 14.2493L10.6372 20.1756C10.7771 20.297 10.8384 20.4858 10.7966 20.6662L8.75461 29.4729C8.65478 29.9034 9.12167 30.2422 9.50005 30.0139L17.2416 25.3414Z" fill="white"/>
</svg>
